<?xml version="1.0" encoding="utf-8"?>
<svg x="0px" y="0px" width="432px"
	 height="432px" viewBox="0 0 432 432" enable-background="new 0 0 432 432" id="svg2" version="1.1" xmlns="http://www.w3.org/2000/svg">
  <g transform="matrix(1.3333333,0,0,-1.3333333,0,53.333333)" id="g10">
    <g transform="scale(0.1)" id="g12">
      <path id="path32" style="fill:#000;fill-opacity:1;fill-rule:evenodd;stroke:none" d="M 121.094,315.012 C 184.617,315.012 236.109,263.52 236.109,200 236.109,136.477 184.617,84.9844 121.094,84.9844 57.5742,84.9844 6.08203,136.477 6.08203,200 c 0,63.52 51.49217,115.012 115.01197,115.012 z m 34.636,-62.535 c 1.704,0.211 3.305,0.656 4.778,1.3 1.496,0.661 2.867,1.536 4.058,2.578 v 0.008 c 1.207,1.051 2.25,2.293 3.102,3.684 0.836,1.379 1.492,2.906 1.93,4.551 l 2.636,10.058 c 2.375,9.047 -3.32,10.653 -11.382,9.649 C 21.8984,275.18 42.3984,220.051 60.7305,123.816 c 0.5898,-4.761 1.6523,-6.164 3.582,-6.621 1.7383,-0.402 4.2188,-0.277 7.7109,2.461 l 12.0039,9.399 c 4.4649,3.496 6.129,11.3 5.4219,16.929 -13.2812,79.274 -24.9609,97.461 66.2808,106.493 z m 35.708,-4.957 c 33.218,-61.344 -14.313,-116.786 -80.68,-105.161 -0.192,0.032 -0.391,0.071 -0.567,0.102 -16.3082,2.934 -9.929,28.734 5.161,26.121 43.902,-7.617 75.437,23.707 52.867,65.844 -7.231,13.488 15.304,27.722 23.219,13.094 z m -75.551,-28.606 33.25,4.145 c 1.855,0.23 3.535,-0.227 4.797,-1.293 1.254,-1.075 1.8,-2.477 1.386,-3.973 l -3.129,-11.277 c -2.086,-7.524 -9.113,-13.383 -18.461,-14.543 l -26.906,-3.348 c -3.125,-0.391 -5.867,1.367 -6.25,3.906 l -1.3787,9.004 c -1.2695,8.266 6.4567,16.11 16.6917,17.379"/>
    </g>
  </g>
</svg>